<svg version="1.1" id="Layer_1" xmlns="http://www.w3.org/2000/svg" xmlns:xlink="http://www.w3.org/1999/xlink" x="0px" y="0px"
	 width="100%" viewBox="0 0 612 408" enable-background="new 0 0 612 408" xml:space="preserve">
<path fill="#000000" opacity="1.000000" stroke="none" 
	d="
M421.000000,409.000000 
	C280.700928,409.000000 140.901825,409.000000 1.051371,409.000000 
	C1.051371,273.067566 1.051371,137.135117 1.051371,1.101334 
	C204.882446,1.101334 408.764954,1.101334 612.823730,1.101334 
	C612.823730,136.999817 612.823730,272.999878 612.823730,409.000000 
	C549.135071,409.000000 485.317535,409.000000 421.000000,409.000000 
M252.052826,294.387115 
	C252.052826,294.387115 251.647247,294.100708 251.348892,293.683289 
	C250.890671,293.501038 250.432449,293.318787 249.450256,292.697571 
	C238.142639,285.927673 226.835022,279.157776 215.218277,272.202820 
	C216.087540,271.081055 216.441650,270.227203 217.076706,269.862213 
	C236.407440,258.751831 255.621964,247.427155 275.169220,236.709702 
	C288.752869,229.261993 288.976410,229.639160 288.629059,214.205139 
	C288.558044,211.047943 288.311615,207.894684 288.093353,203.735901 
	C261.076324,220.377075 235.294296,236.257538 208.972305,252.470612 
	C208.972305,216.687225 208.920685,181.857224 209.121460,147.028687 
	C209.131714,145.248245 210.901321,142.804016 212.542633,141.812973 
	C226.264023,133.527878 240.179916,125.565956 253.971786,117.396248 
	C265.353058,110.654488 276.645355,103.762566 288.606537,96.854576 
	C289.640900,96.170464 290.675262,95.486351 291.815857,94.834656 
	C291.815857,94.834656 291.814270,94.723640 292.476501,94.490761 
	C296.052429,92.421890 299.534027,90.155945 303.249207,88.378075 
	C304.804962,87.633568 307.207275,87.197922 308.616669,87.879425 
	C312.976624,89.987671 317.044189,92.700638 321.550049,95.371307 
	C320.446472,96.327881 319.898224,96.971222 319.209595,97.375092 
	C306.252502,104.974060 293.253326,112.501503 280.314819,120.131882 
	C263.219391,130.213821 246.201096,140.427139 229.065384,150.439789 
	C226.367783,152.016052 225.652527,153.903824 225.667496,156.873642 
	C225.778076,178.830780 225.719391,200.788788 225.714127,222.746521 
	C225.713440,225.605301 225.714035,228.464081 225.714035,232.656509 
	C230.513794,229.535187 234.217804,227.126450 238.585892,224.525467 
	C244.424088,222.423904 245.253433,218.115540 245.084534,212.377335 
	C244.643723,197.401917 244.816528,182.403732 245.042648,167.419128 
	C245.072037,165.472534 246.338531,162.685165 247.904572,161.752670 
	C265.776703,151.110748 283.869690,140.840271 301.771057,130.246445 
	C305.320557,128.145889 308.252991,128.185791 311.840149,129.919067 
	C322.569366,135.103287 333.410706,140.057495 344.258575,144.990982 
	C345.472321,145.542999 347.608643,146.061874 348.297882,145.449310 
	C352.923279,141.338394 357.272797,136.917023 362.231079,132.090820 
	C349.750183,126.285698 338.462433,121.035530 325.880524,115.183426 
	C331.924713,111.985260 336.969666,109.315826 342.543213,107.116943 
	C350.782837,111.714729 359.031281,116.296860 367.258789,120.916237 
	C372.096252,123.632256 372.595459,123.474014 375.140778,118.042076 
	C369.203674,111.400940 363.310669,104.693832 357.283966,98.109100 
	C353.379211,93.842743 349.900391,88.763588 345.143799,85.783463 
	C333.410126,78.431999 321.088867,72.008263 308.887054,65.428169 
	C307.527130,64.694817 305.049072,64.713127 303.706207,65.472855 
	C289.079590,73.747925 274.524536,82.153267 260.052490,90.696777 
	C243.467072,100.487923 226.963776,110.418907 210.467651,120.360245 
	C202.867477,124.940460 195.369247,129.689896 187.232956,134.859329 
	C187.109283,144.812592 186.902222,154.765625 186.876923,164.719131 
	C186.785507,200.676987 186.800934,236.635193 186.638016,272.592651 
	C186.619797,276.617371 187.640427,279.218201 191.394745,281.347198 
	C204.904053,289.007996 218.199829,297.046112 231.559799,304.969421 
	C255.716507,319.295868 279.838715,333.680939 304.068665,347.882294 
	C305.487152,348.713715 308.144348,348.854553 309.527863,348.076721 
	C315.546478,344.692719 321.306702,340.849182 327.847382,337.048676 
	C328.642120,336.579712 329.436890,336.110779 330.668243,335.452728 
	C331.023193,335.135712 331.378174,334.818695 332.314880,334.459564 
	C332.917023,334.042938 333.519165,333.626343 334.640167,332.985565 
	C334.759277,332.839264 334.878418,332.692963 335.532898,332.399384 
	C336.048950,331.956451 336.565002,331.513489 337.791138,330.972565 
	C365.930054,314.385437 394.058289,297.780090 422.223846,281.238434 
	C425.141235,279.525055 427.464203,278.184235 427.436035,273.886871 
	C427.208344,239.132874 427.326996,204.376709 427.242706,169.621429 
	C427.238190,167.758911 426.359070,165.898529 425.628052,163.421555 
	C420.085815,158.089050 414.543549,152.756531 407.978333,146.439774 
	C407.714996,149.654007 407.474854,151.237991 407.471619,152.822449 
	C407.397308,189.123352 407.272339,225.424606 407.402283,261.724884 
	C407.416870,265.797424 406.056305,268.049744 402.690369,270.027740 
	C372.885925,287.542572 343.082947,305.062805 313.472595,322.901886 
	C308.686462,325.785370 305.135284,325.762024 300.463196,322.943054 
	C284.765594,313.471527 268.831299,304.392303 252.589722,294.885437 
	C252.589722,294.885437 252.105728,294.852814 252.026810,294.980774 
	C252.026810,294.980774 252.135361,294.876709 252.052826,294.387115 
M316.622345,261.268494 
	C316.622345,237.701080 316.622345,214.133667 316.622345,190.051025 
	C327.956482,190.051025 338.562317,190.290466 349.143829,189.889175 
	C351.923279,189.783768 355.241730,188.333191 357.255493,186.399429 
	C364.420502,179.519058 370.935211,171.964035 378.057220,165.035614 
	C388.476654,154.899353 399.207764,145.083466 410.987946,134.021133 
	C415.820282,139.269196 421.750214,145.709305 428.753235,153.314789 
	C433.891968,128.997574 438.759064,105.965858 443.823029,82.002480 
	C418.431641,86.908379 394.659424,91.501427 370.887238,96.094475 
	C370.837341,96.693100 370.787445,97.291725 370.737518,97.890350 
	C376.731384,103.554306 382.539459,109.436478 388.809448,114.776199 
	C391.363068,116.950966 391.836609,118.299660 389.558746,120.700020 
	C374.852448,136.196976 360.258667,151.802124 345.400146,167.151276 
	C343.712433,168.894730 340.614502,170.119125 338.157532,170.141129 
	C313.506927,170.361954 288.853027,170.363464 264.201569,170.200409 
	C260.238190,170.174179 259.000977,171.286224 259.102936,175.289124 
	C259.361664,185.443787 259.141479,195.610062 259.186523,205.771362 
	C259.194061,207.470657 259.570129,209.168335 259.872192,211.661545 
	C263.934326,209.008362 267.091064,206.621094 270.535919,204.769913 
	C276.242920,201.703094 281.148773,198.359726 278.692108,190.396866 
	C285.205109,190.396866 291.063141,190.396866 297.370544,190.396866 
	C297.370544,193.648163 297.370422,196.453537 297.370575,199.258911 
	C297.371735,220.582260 297.355591,241.905640 297.409363,263.228851 
	C297.413391,264.823364 297.403137,267.366699 298.281097,267.842529 
	C301.696655,269.693817 304.128662,274.222473 308.964111,272.606323 
	C314.839905,270.642487 316.604614,268.089874 316.622345,261.268494 
M393.145905,218.641678 
	C393.145905,200.516953 393.145905,182.392227 393.145905,164.267502 
	C392.657745,164.135956 392.169586,164.004410 391.681396,163.872864 
	C387.192078,168.701050 383.003906,173.866638 378.106537,178.237625 
	C374.893646,181.105194 373.864319,183.996719 373.907623,188.132126 
	C374.099396,206.446014 373.950287,224.763229 374.027100,243.078812 
	C374.040100,246.181900 373.147888,248.108307 370.238342,249.810272 
	C351.117157,260.995361 332.199921,272.529663 313.043945,283.653534 
	C311.189331,284.730499 307.657074,284.696045 305.758453,283.640228 
	C289.747742,274.736938 273.936218,265.475464 257.973022,256.268707 
	C251.888168,259.906952 245.862686,263.509705 238.939972,267.648926 
	C246.397522,271.995026 252.912857,275.819763 259.454559,279.598846 
	C275.021606,288.591797 290.548767,297.657013 306.250488,306.408813 
	C307.960541,307.361969 311.071838,307.190033 312.904175,306.277283 
	C318.660370,303.409882 324.129089,299.961578 329.686005,296.698761 
	C349.471832,285.081116 369.248108,273.447083 389.027985,261.819275 
	C392.964935,259.504883 394.197235,256.502289 393.566010,251.653595 
	C392.709106,245.071442 393.309357,238.301590 393.252716,231.612503 
	C393.218170,227.530838 393.123596,223.449677 393.145905,218.641678 
M588.962463,380.623260 
	C589.961853,386.702881 584.470215,384.066071 581.742432,385.624878 
	C582.428345,387.374664 583.033386,388.918121 584.154846,391.779083 
	C588.265808,387.784637 591.661926,384.484772 595.058044,381.184906 
	C594.621460,380.349274 594.184814,379.513672 593.748230,378.678070 
	C592.158813,379.051422 590.569458,379.424805 588.962463,380.623260 
z"/>
<path fill="#07F9E7" opacity="1.000000" stroke="none" 
	d="
M331.733154,334.501709 
	C331.378174,334.818695 331.023193,335.135712 330.429047,335.342407 
	C330.189850,335.232086 330.020050,334.853912 329.795227,334.664551 
	C328.727173,334.972046 327.883911,335.468903 327.015747,335.976379 
	C326.990845,335.987030 326.962891,336.033417 326.679291,336.057373 
	C325.924530,336.372650 325.453369,336.663910 324.637085,337.036072 
	C319.225555,339.951935 314.226929,342.921753 309.045349,345.527710 
	C307.740570,346.183868 305.513885,346.277191 304.288574,345.593597 
	C299.816528,343.098694 295.673309,340.022278 291.254761,337.422272 
	C268.647766,324.119568 245.980301,310.919586 223.362640,297.634857 
	C215.083435,292.772003 206.791473,287.919067 198.689301,282.772034 
	C195.169342,280.535889 192.113693,277.568909 189.112366,274.619904 
	C189.536865,263.401947 189.738968,252.498093 189.778671,241.593674 
	C189.782043,240.667084 188.701569,239.736557 188.139008,238.352905 
	C188.141785,232.661331 188.130157,227.424728 188.431824,222.002060 
	C188.536530,219.481354 188.327927,217.146683 188.139862,214.541504 
	C188.146576,213.909760 188.132767,213.548523 188.450867,212.979797 
	C189.138000,207.053146 189.576492,201.336716 189.763504,195.612091 
	C189.793396,194.696960 188.696457,193.745010 188.135742,192.387360 
	C188.141144,189.706863 188.131256,187.449097 188.449219,184.986084 
	C190.274048,180.696777 191.236404,176.642181 188.132996,172.355743 
	C188.160049,160.008957 188.171829,148.118805 188.515381,136.113388 
	C191.973007,134.144424 195.098373,132.289886 198.224823,130.437195 
	C213.082947,121.632553 227.942764,112.830811 242.799210,104.023361 
	C255.069550,96.749054 267.286621,89.383072 279.624756,82.225723 
	C285.913055,78.577896 292.415680,75.299591 299.145569,71.830284 
	C299.971405,71.191124 300.473175,70.575928 301.185822,69.668282 
	C303.236572,68.892090 305.076447,68.408356 307.202515,67.940414 
	C307.679840,67.951920 307.870941,67.947632 308.384979,67.955032 
	C309.137115,68.005234 309.566254,68.043732 310.130402,68.265915 
	C310.470703,68.679741 310.711060,68.864212 311.242981,69.118301 
	C311.999268,69.491684 312.499023,69.749794 313.142883,70.204437 
	C313.511444,70.646164 313.779663,70.826141 314.380890,71.118164 
	C322.083710,75.661026 329.201508,80.669991 336.978302,84.245674 
	C349.525787,90.014885 356.559753,101.147110 365.008362,111.322433 
	C362.965363,112.480164 360.969879,113.248604 358.682587,113.838791 
	C352.961884,111.024063 347.532990,108.387596 341.787109,105.581764 
	C335.970551,104.428925 332.662445,108.592827 328.714539,111.039650 
	C322.920959,114.630417 323.110748,116.434868 329.412628,119.590401 
	C335.509247,122.643188 341.719971,125.468086 347.878113,128.398193 
	C358.495514,133.450073 358.570587,133.544388 349.303375,141.134354 
	C347.964844,142.230637 345.112244,142.809906 343.603668,142.152374 
	C333.267120,137.647064 323.028534,132.897156 312.917664,127.903511 
	C308.792206,125.866020 305.126068,125.537773 301.139191,127.951195 
	C293.760223,132.418015 286.334808,136.810944 278.864197,141.122849 
	C268.665558,147.009354 258.429932,152.832916 248.161179,158.596237 
	C244.419846,160.696091 242.892960,163.635818 242.957962,167.978577 
	C243.149918,180.803787 242.863846,193.636658 243.095459,206.460571 
	C243.216843,213.181519 243.604233,219.739273 236.556442,224.066864 
	C233.887772,225.232834 231.529343,226.226776 228.306137,227.585175 
	C228.155624,224.565857 227.979324,222.643631 227.976471,220.721161 
	C227.949722,202.728043 228.330627,184.723495 227.789902,166.746445 
	C227.513626,157.560898 228.089767,149.820129 238.822006,147.326218 
	C238.971451,147.291473 239.086716,147.127121 239.229080,147.041840 
	C254.600143,137.835175 269.926880,128.553299 285.359070,119.450188 
	C297.217957,112.454857 309.227997,105.716209 321.130920,98.794754 
	C324.542236,96.811119 324.639557,94.447922 321.311096,92.356377 
	C318.365967,90.505714 315.176758,89.041855 312.086761,87.423607 
	C305.686462,84.071762 295.258118,87.831398 291.814270,94.723640 
	C291.814270,94.723640 291.815857,94.834656 291.419617,94.785950 
	C290.343353,94.812225 289.663361,94.887192 288.618225,94.988663 
	C287.340424,95.383095 286.364349,95.642967 285.524841,96.135574 
	C276.248596,101.578644 267.026581,107.114655 257.725403,112.514496 
	C242.126160,121.570755 226.501251,130.583420 210.837891,139.528214 
	C207.250809,141.576675 205.953720,144.341980 205.971909,148.505890 
	C206.116714,181.651245 206.057571,214.797516 206.062805,247.943497 
	C206.062927,248.776062 206.005844,249.618454 206.108719,250.439545 
	C206.652817,254.782013 209.466507,255.800858 213.103378,253.376999 
	C222.344421,247.218140 231.625534,241.110153 241.052551,235.241928 
	C252.980026,227.817184 265.062225,220.640671 277.091248,213.379593 
	C279.421906,211.972733 281.815002,210.669327 284.504913,209.132095 
	C284.976624,211.677002 285.394501,213.608246 285.685486,215.558441 
	C286.830444,223.231949 285.421204,229.710083 277.387024,233.046707 
	C275.560211,233.805374 273.678467,234.487320 271.967560,235.460419 
	C262.054749,241.098465 252.189514,246.820084 242.300293,252.499664 
	C233.503448,257.551880 224.696014,262.585754 215.893860,267.628754 
	C212.010117,269.853851 211.372818,272.294128 214.558868,274.205261 
	C226.309357,281.253845 238.207245,288.056732 250.271790,294.979095 
	C250.493896,295.006195 250.941406,295.008881 251.244476,295.017212 
	C251.743469,294.975952 251.939407,294.926331 252.135361,294.876709 
	C252.135361,294.876709 252.026810,294.980774 252.043579,295.230896 
	C252.364609,296.007111 252.668854,296.533173 253.171173,297.336334 
	C254.438858,298.391876 255.449707,299.271271 256.587036,299.933319 
	C269.269501,307.315460 282.548065,313.847992 294.485016,322.281128 
	C303.956940,328.972809 311.148132,328.131927 320.296021,322.020905 
	C332.960571,313.560669 346.588318,306.542328 360.221497,298.932495 
	C362.889038,299.070068 365.057617,299.066345 365.163147,295.752808 
	C365.538971,295.417145 365.742889,295.214142 366.282410,295.053314 
	C368.418030,296.069702 370.209015,297.034851 371.852417,298.332886 
	C370.639740,301.754517 370.168304,304.391937 374.999176,303.380981 
	C375.000336,304.529327 375.001068,305.295441 374.803253,306.086243 
	C374.604675,306.110931 374.204712,306.097565 373.838867,306.061371 
	C369.105713,304.870087 367.797668,307.092682 367.636963,311.019714 
	C365.220123,312.062531 363.165985,313.068176 360.849396,313.979614 
	C360.057556,314.584381 359.528168,315.283356 358.641235,316.029358 
	C352.791565,319.378937 347.249298,322.602020 341.832062,326.023071 
	C339.669250,327.388977 337.782379,329.191833 335.572021,330.839050 
	C335.374176,330.882355 334.982788,330.986786 334.696991,331.022278 
	C333.955994,331.384338 333.500793,331.710846 332.883148,332.208679 
	C332.491486,332.596558 332.248535,332.796417 331.838562,333.069366 
	C331.616241,333.253082 331.481750,333.354187 331.491089,333.439606 
	C331.514801,333.656830 331.602844,333.867004 331.639160,334.192383 
	C331.613129,334.304749 331.733154,334.501709 331.733154,334.501709 
M361.440308,303.234589 
	C360.975128,303.562012 360.509979,303.889435 360.044830,304.216858 
	C360.400635,304.433136 360.756409,304.649384 361.112213,304.865662 
	C361.390594,304.371368 361.668976,303.877045 361.440308,303.234589 
M369.060547,301.405884 
	C368.770538,301.106720 368.480530,300.807556 368.190491,300.508392 
	C368.004578,300.713531 367.818634,300.918640 367.632721,301.123779 
	C368.004578,301.318176 368.376434,301.512573 369.060547,301.405884 
z"/>
<path fill="#11F0E0" opacity="1.000000" stroke="none" 
	d="
M316.622437,261.730347 
	C316.604614,268.089874 314.839905,270.642487 308.964111,272.606323 
	C304.128662,274.222473 301.696655,269.693817 298.281097,267.842529 
	C297.403137,267.366699 297.413391,264.823364 297.409363,263.228851 
	C297.355591,241.905640 297.371735,220.582260 297.370575,199.258911 
	C297.370422,196.453537 297.370544,193.648163 297.370544,190.396866 
	C291.063141,190.396866 285.205109,190.396866 278.692108,190.396866 
	C281.148773,198.359726 276.242920,201.703094 270.535919,204.769913 
	C267.091064,206.621094 263.934326,209.008362 259.872192,211.661545 
	C259.570129,209.168335 259.194061,207.470657 259.186523,205.771362 
	C259.141479,195.610062 259.361664,185.443787 259.102936,175.289124 
	C259.000977,171.286224 260.238190,170.174179 264.201569,170.200409 
	C288.853027,170.363464 313.506927,170.361954 338.157532,170.141129 
	C340.614502,170.119125 343.712433,168.894730 345.400146,167.151276 
	C360.258667,151.802124 374.852448,136.196976 389.558746,120.700020 
	C391.836609,118.299660 391.363068,116.950966 388.809448,114.776199 
	C382.539459,109.436478 376.731384,103.554306 370.737518,97.890350 
	C370.787445,97.291725 370.837341,96.693100 370.887238,96.094475 
	C394.659424,91.501427 418.431641,86.908379 443.823029,82.002480 
	C438.759064,105.965858 433.891968,128.997574 428.753235,153.314789 
	C421.750214,145.709305 415.820282,139.269196 410.987946,134.021133 
	C399.207764,145.083466 388.476654,154.899353 378.057220,165.035614 
	C370.935211,171.964035 364.420502,179.519058 357.255493,186.399429 
	C355.241730,188.333191 351.923279,189.783768 349.143829,189.889175 
	C338.562317,190.290466 327.956482,190.051025 316.622345,190.051025 
	C316.622345,214.133667 316.622345,237.701080 316.622437,261.730347 
z"/>
<path fill="#3CDACD" opacity="1.000000" stroke="none" 
	d="
M393.100952,219.004974 
	C393.123596,223.449677 393.218170,227.530838 393.252716,231.612503 
	C393.309357,238.301590 392.709106,245.071442 393.566010,251.653595 
	C394.197235,256.502289 392.964935,259.504883 389.027985,261.819275 
	C369.248108,273.447083 349.471832,285.081116 329.686005,296.698761 
	C324.129089,299.961578 318.660370,303.409882 312.904175,306.277283 
	C311.071838,307.190033 307.960541,307.361969 306.250488,306.408813 
	C290.548767,297.657013 275.021606,288.591797 259.454559,279.598846 
	C252.912857,275.819763 246.397522,271.995026 238.939972,267.648926 
	C245.862686,263.509705 251.888168,259.906952 257.973022,256.268707 
	C273.936218,265.475464 289.747742,274.736938 305.758453,283.640228 
	C307.657074,284.696045 311.189331,284.730499 313.043945,283.653534 
	C332.199921,272.529663 351.117157,260.995361 370.238342,249.810272 
	C373.147888,248.108307 374.040100,246.181900 374.027100,243.078812 
	C373.950287,224.763229 374.099396,206.446014 373.907623,188.132126 
	C373.864319,183.996719 374.893646,181.105194 378.106537,178.237625 
	C383.003906,173.866638 387.192078,168.701050 391.681396,163.872864 
	C392.169586,164.004410 392.657745,164.135956 393.145905,164.267502 
	C393.145905,182.392227 393.145905,200.516953 393.100952,219.004974 
M327.690887,295.234344 
	C332.365417,292.409943 337.025818,289.561798 341.717102,286.765533 
	C356.810730,277.768860 371.842377,268.663544 387.077545,259.912842 
	C390.173950,258.134338 391.152344,256.233002 391.138702,252.871689 
	C391.035309,227.378387 391.091278,201.884445 391.074524,176.390732 
	C391.073273,174.482178 390.893463,172.573761 390.730408,169.358902 
	C382.593262,176.332321 375.454285,181.826721 375.826752,193.011871 
	C376.381042,209.656219 376.131317,226.335205 375.833038,242.992447 
	C375.782532,245.811432 374.557312,249.620163 372.508942,251.194717 
	C367.284882,255.210327 361.293854,258.230072 355.600555,261.632935 
	C343.791809,268.690948 331.764465,275.411987 320.239929,282.906494 
	C312.596130,287.877319 305.769104,288.981384 298.708954,282.426483 
	C298.122589,281.882050 297.228424,281.681763 296.510315,281.264709 
	C287.098206,275.798157 277.496277,270.626984 268.339355,264.761353 
	C259.149170,258.874451 251.169052,259.790314 245.306107,268.464661 
	C245.910980,268.944489 246.477600,269.529755 247.157928,269.913391 
	C258.239471,276.162506 269.377655,282.312439 280.414764,288.638824 
	C289.128571,293.633545 297.624451,299.018280 306.449982,303.799927 
	C308.250580,304.775452 311.442963,304.567749 313.379272,303.632843 
	C318.121796,301.342865 322.505432,298.309540 327.690887,295.234344 
z"/>
<path fill="#36DDD0" opacity="1.000000" stroke="none" 
	d="
M250.049698,294.951996 
	C238.207245,288.056732 226.309357,281.253845 214.558868,274.205261 
	C211.372818,272.294128 212.010117,269.853851 215.893860,267.628754 
	C224.696014,262.585754 233.503448,257.551880 242.300293,252.499664 
	C252.189514,246.820084 262.054749,241.098465 271.967560,235.460419 
	C273.678467,234.487320 275.560211,233.805374 277.387024,233.046707 
	C285.421204,229.710083 286.830444,223.231949 285.685486,215.558441 
	C285.394501,213.608246 284.976624,211.677002 284.504913,209.132095 
	C281.815002,210.669327 279.421906,211.972733 277.091248,213.379593 
	C265.062225,220.640671 252.980026,227.817184 241.052551,235.241928 
	C231.625534,241.110153 222.344421,247.218140 213.103378,253.376999 
	C209.466507,255.800858 206.652817,254.782013 206.108719,250.439545 
	C206.005844,249.618454 206.062927,248.776062 206.062805,247.943497 
	C206.057571,214.797516 206.116714,181.651245 205.971909,148.505890 
	C205.953720,144.341980 207.250809,141.576675 210.837891,139.528214 
	C226.501251,130.583420 242.126160,121.570755 257.725403,112.514496 
	C267.026581,107.114655 276.248596,101.578644 285.524841,96.135574 
	C286.364349,95.642967 287.340424,95.383095 288.508362,95.243721 
	C288.501495,95.960594 288.239288,96.448891 287.977081,96.937195 
	C276.645355,103.762566 265.353058,110.654488 253.971786,117.396248 
	C240.179916,125.565956 226.264023,133.527878 212.542633,141.812973 
	C210.901321,142.804016 209.131714,145.248245 209.121460,147.028687 
	C208.920685,181.857224 208.972305,216.687225 208.972305,252.470612 
	C235.294296,236.257538 261.076324,220.377075 288.093353,203.735901 
	C288.311615,207.894684 288.558044,211.047943 288.629059,214.205139 
	C288.976410,229.639160 288.752869,229.261993 275.169220,236.709702 
	C255.621964,247.427155 236.407440,258.751831 217.076706,269.862213 
	C216.441650,270.227203 216.087540,271.081055 215.218277,272.202820 
	C226.835022,279.157776 238.142639,285.927673 249.719330,293.220123 
	C250.008835,294.145782 250.029266,294.548889 250.049698,294.951996 
z"/>
<path fill="#35D3C5" opacity="1.000000" stroke="none" 
	d="
M365.937805,295.002075 
	C365.742889,295.214142 365.538971,295.417145 364.820190,295.802368 
	C362.810760,296.964569 361.307190,297.935547 359.803619,298.906555 
	C346.588318,306.542328 332.960571,313.560669 320.296021,322.020905 
	C311.148132,328.131927 303.956940,328.972809 294.485016,322.281128 
	C282.548065,313.847992 269.269501,307.315460 256.587036,299.933319 
	C255.449707,299.271271 254.438858,298.391876 253.178467,297.019775 
	C252.987640,296.005066 252.987610,295.583984 252.987579,295.162933 
	C268.831299,304.392303 284.765594,313.471527 300.463196,322.943054 
	C305.135284,325.762024 308.686462,325.785370 313.472595,322.901886 
	C343.082947,305.062805 372.885925,287.542572 402.690369,270.027740 
	C406.056305,268.049744 407.416870,265.797424 407.402283,261.724884 
	C407.272339,225.424606 407.397308,189.123352 407.471619,152.822449 
	C407.474854,151.237991 407.714996,149.654007 407.978333,146.439774 
	C414.543549,152.756531 420.085815,158.089050 425.562256,163.883850 
	C425.108795,164.884338 424.721161,165.422531 424.062134,165.730820 
	C419.738953,161.579178 415.687195,157.657425 411.635468,153.735687 
	C411.197113,153.973434 410.758759,154.211182 410.320435,154.448929 
	C410.195618,156.188904 409.963501,157.928772 409.961853,159.668869 
	C409.930084,193.630081 409.884796,227.591415 409.957275,261.552460 
	C409.968475,266.805573 407.888123,270.175873 403.122345,272.500580 
	C398.847961,274.585571 394.945343,277.432678 390.593018,280.013428 
	C389.815521,280.648895 389.323669,281.214417 388.467438,281.819397 
	C380.714630,286.239899 373.326233,290.621002 365.937805,295.002075 
z"/>
<path fill="#3ADCCF" opacity="1.000000" stroke="none" 
	d="
M312.998779,70.007904 
	C312.499023,69.749794 311.999268,69.491684 311.117462,68.925079 
	C310.533478,68.376564 310.286804,68.198441 309.995422,68.082230 
	C309.566254,68.043732 309.137115,68.005234 308.261902,67.835144 
	C307.515991,67.777245 307.216125,67.850945 306.916290,67.924629 
	C305.076447,68.408356 303.236572,68.892090 300.888428,69.741577 
	C299.860565,70.689644 299.341003,71.271942 298.821442,71.854248 
	C292.415680,75.299591 285.913055,78.577896 279.624756,82.225723 
	C267.286621,89.383072 255.069550,96.749054 242.799210,104.023361 
	C227.942764,112.830811 213.082947,121.632553 198.224823,130.437195 
	C195.098373,132.289886 191.973007,134.144424 188.419098,135.647186 
	C187.935638,134.985031 187.880219,134.673813 187.824799,134.362595 
	C195.369247,129.689896 202.867477,124.940460 210.467651,120.360245 
	C226.963776,110.418907 243.467072,100.487923 260.052490,90.696777 
	C274.524536,82.153267 289.079590,73.747925 303.706207,65.472855 
	C305.049072,64.713127 307.527130,64.694817 308.887054,65.428169 
	C321.088867,72.008263 333.410126,78.431999 345.143799,85.783463 
	C349.900391,88.763588 353.379211,93.842743 357.283966,98.109100 
	C363.310669,104.693832 369.203674,111.400940 375.140778,118.042076 
	C372.595459,123.474014 372.096252,123.632256 367.258789,120.916237 
	C359.031281,116.296860 350.782837,111.714729 342.301819,106.657913 
	C342.060455,106.198875 342.104095,105.751137 342.104095,105.751129 
	C347.532990,108.387596 352.961884,111.024063 358.921875,114.085785 
	C363.266205,116.574760 366.713989,119.628326 371.297363,119.605934 
	C371.653717,119.143585 372.010101,118.681236 372.366455,118.218887 
	C369.929565,115.790306 367.492706,113.361732 365.055847,110.933151 
	C356.559753,101.147110 349.525787,90.014885 336.978302,84.245674 
	C329.201508,80.669991 322.083710,75.661026 314.229919,70.927864 
	C313.563507,70.322624 313.299866,70.138489 312.998779,70.007904 
z"/>
<path fill="#37D8CC" opacity="1.000000" stroke="none" 
	d="
M341.787109,105.581772 
	C342.104095,105.751137 342.060455,106.198875 342.037537,106.422638 
	C336.969666,109.315826 331.924713,111.985260 325.880524,115.183426 
	C338.462433,121.035530 349.750183,126.285698 362.231079,132.090820 
	C357.272797,136.917023 352.923279,141.338394 348.297882,145.449310 
	C347.608643,146.061874 345.472321,145.542999 344.258575,144.990982 
	C333.410706,140.057495 322.569366,135.103287 311.840149,129.919067 
	C308.252991,128.185791 305.320557,128.145889 301.771057,130.246445 
	C283.869690,140.840271 265.776703,151.110748 247.904572,161.752670 
	C246.338531,162.685165 245.072037,165.472534 245.042648,167.419128 
	C244.816528,182.403732 244.643723,197.401917 245.084534,212.377335 
	C245.253433,218.115540 244.424088,222.423904 238.101395,224.457443 
	C237.387924,224.192535 237.137848,224.027679 236.866669,223.894852 
	C243.604233,219.739273 243.216843,213.181519 243.095459,206.460571 
	C242.863846,193.636658 243.149918,180.803787 242.957962,167.978577 
	C242.892960,163.635818 244.419846,160.696091 248.161179,158.596237 
	C258.429932,152.832916 268.665558,147.009354 278.864197,141.122849 
	C286.334808,136.810944 293.760223,132.418015 301.139191,127.951195 
	C305.126068,125.537773 308.792206,125.866020 312.917664,127.903511 
	C323.028534,132.897156 333.267120,137.647064 343.603668,142.152374 
	C345.112244,142.809906 347.964844,142.230637 349.303375,141.134354 
	C358.570587,133.544388 358.495514,133.450073 347.878113,128.398193 
	C341.719971,125.468086 335.509247,122.643188 329.412628,119.590401 
	C323.110748,116.434868 322.920959,114.630417 328.714539,111.039650 
	C332.662445,108.592827 335.970551,104.428925 341.787109,105.581772 
z"/>
<path fill="#47D7CC" opacity="1.000000" stroke="none" 
	d="
M187.528870,134.610962 
	C187.880219,134.673813 187.935638,134.985031 188.087341,135.762451 
	C188.171829,148.118805 188.160049,160.008957 188.094864,172.835892 
	C188.068100,177.578903 188.094727,181.385117 188.121368,185.191330 
	C188.131256,187.449097 188.141144,189.706863 188.096771,192.874268 
	C188.067978,200.251709 188.093460,206.719498 188.118958,213.187302 
	C188.132767,213.548523 188.146576,213.909760 188.101349,215.004669 
	C188.067719,217.888290 188.093140,220.038193 188.118561,222.188110 
	C188.130157,227.424728 188.141785,232.661331 188.099274,238.840179 
	C188.027603,247.578049 187.915878,255.375122 188.031967,263.168793 
	C188.090439,267.093658 188.562271,271.012360 188.847168,274.933868 
	C192.113693,277.568909 195.169342,280.535889 198.689301,282.772034 
	C206.791473,287.919067 215.083435,292.772003 223.362640,297.634857 
	C245.980301,310.919586 268.647766,324.119568 291.254761,337.422272 
	C295.673309,340.022278 299.816528,343.098694 304.288574,345.593597 
	C305.513885,346.277191 307.740570,346.183868 309.045349,345.527710 
	C314.226929,342.921753 319.225555,339.951935 324.955994,337.042603 
	C326.043640,336.941345 326.467255,336.914429 326.958435,336.958740 
	C327.026001,337.029938 327.160828,337.172638 327.160828,337.172638 
	C321.306702,340.849182 315.546478,344.692719 309.527863,348.076721 
	C308.144348,348.854553 305.487152,348.713715 304.068665,347.882294 
	C279.838715,333.680939 255.716507,319.295868 231.559799,304.969421 
	C218.199829,297.046112 204.904053,289.007996 191.394745,281.347198 
	C187.640427,279.218201 186.619797,276.617371 186.638016,272.592651 
	C186.800934,236.635193 186.785507,200.676987 186.876923,164.719131 
	C186.902222,154.765625 187.109283,144.812592 187.528870,134.610962 
z"/>
<path fill="#45D7CC" opacity="1.000000" stroke="none" 
	d="
M236.556442,224.066864 
	C237.137848,224.027679 237.387924,224.192535 237.769348,224.553558 
	C234.217804,227.126450 230.513794,229.535187 225.714035,232.656509 
	C225.714035,228.464081 225.713440,225.605301 225.714127,222.746521 
	C225.719391,200.788788 225.778076,178.830780 225.667496,156.873642 
	C225.652527,153.903824 226.367783,152.016052 229.065384,150.439789 
	C246.201096,140.427139 263.219391,130.213821 280.314819,120.131882 
	C293.253326,112.501503 306.252502,104.974060 319.209595,97.375092 
	C319.898224,96.971222 320.446472,96.327881 321.550049,95.371307 
	C317.044189,92.700638 312.976624,89.987671 308.616669,87.879425 
	C307.207275,87.197922 304.804962,87.633568 303.249207,88.378075 
	C299.534027,90.155945 296.052429,92.421890 292.145386,94.607201 
	C295.258118,87.831398 305.686462,84.071762 312.086761,87.423607 
	C315.176758,89.041855 318.365967,90.505714 321.311096,92.356377 
	C324.639557,94.447922 324.542236,96.811119 321.130920,98.794754 
	C309.227997,105.716209 297.217957,112.454857 285.359070,119.450188 
	C269.926880,128.553299 254.600143,137.835175 239.229080,147.041840 
	C239.086716,147.127121 238.971451,147.291473 238.822006,147.326218 
	C228.089767,149.820129 227.513626,157.560898 227.789902,166.746445 
	C228.330627,184.723495 227.949722,202.728043 227.976471,220.721161 
	C227.979324,222.643631 228.155624,224.565857 228.306137,227.585175 
	C231.529343,226.226776 233.887772,225.232834 236.556442,224.066864 
z"/>
<path fill="#3BDED2" opacity="1.000000" stroke="none" 
	d="
M424.333557,165.960724 
	C424.721161,165.422531 425.108795,164.884338 425.691772,164.191650 
	C426.359070,165.898529 427.238190,167.758911 427.242706,169.621429 
	C427.326996,204.376709 427.208344,239.132874 427.436035,273.886871 
	C427.464203,278.184235 425.141235,279.525055 422.223846,281.238434 
	C394.058289,297.780090 365.930054,314.385437 337.107483,330.957520 
	C336.205841,330.893585 335.987885,330.844696 335.769897,330.795776 
	C337.782379,329.191833 339.669250,327.388977 341.832062,326.023071 
	C347.249298,322.602020 352.791565,319.378937 358.904907,315.907043 
	C360.054749,315.183105 360.583313,314.628479 361.111847,314.073822 
	C363.165985,313.068176 365.220123,312.062531 367.933502,310.861603 
	C370.463409,309.143372 372.334045,307.620483 374.204712,306.097565 
	C374.204712,306.097565 374.604675,306.110931 375.141052,306.025360 
	C377.490875,304.649902 379.304321,303.360046 381.424438,302.023438 
	C382.486633,301.645691 383.242188,301.314697 384.275757,300.847046 
	C385.428528,299.837463 386.303284,298.964508 387.413879,297.977783 
	C388.105743,297.607361 388.561768,297.350708 389.379517,297.080200 
	C391.519257,295.741364 393.297333,294.416443 395.092316,293.094299 
	C395.109253,293.097137 395.140808,293.119049 395.514954,293.102600 
	C403.860718,288.762146 411.792664,284.362640 419.821411,280.147491 
	C423.582336,278.172974 425.160980,275.572479 425.134491,271.089020 
	C424.940063,238.183792 425.046783,205.276855 425.006378,172.370499 
	C425.003754,170.233643 424.567902,168.097321 424.333557,165.960724 
z"/>
<path fill="#A0A0A0" opacity="1.000000" stroke="none" 
	d="
M588.971252,380.210724 
	C590.569458,379.424805 592.158813,379.051422 593.748230,378.678070 
	C594.184814,379.513672 594.621460,380.349274 595.058044,381.184906 
	C591.661926,384.484772 588.265808,387.784637 584.154846,391.779083 
	C583.033386,388.918121 582.428345,387.374664 581.742432,385.624878 
	C584.470215,384.066071 589.961853,386.702881 588.971252,380.210724 
z"/>
<path fill="#45D7CC" opacity="1.000000" stroke="none" 
	d="
M288.291809,96.895889 
	C288.239288,96.448891 288.501495,95.960594 288.873505,95.217224 
	C289.663361,94.887192 290.343353,94.812225 291.366516,94.769745 
	C290.675262,95.486351 289.640900,96.170464 288.291809,96.895889 
z"/>
<path fill="#47D7CC" opacity="1.000000" stroke="none" 
	d="
M330.020050,334.853943 
	C330.020050,334.853912 330.189850,335.232086 330.210754,335.436951 
	C329.436890,336.110779 328.642120,336.579712 327.504089,337.110657 
	C327.160828,337.172638 327.026001,337.029938 326.987549,336.746460 
	C326.949066,336.462952 326.962891,336.033417 326.962891,336.033417 
	C326.962891,336.033417 326.990845,335.987030 327.333862,335.940857 
	C328.457977,335.547760 329.239014,335.200836 330.020050,334.853943 
z"/>
<path fill="#47D7CC" opacity="1.000000" stroke="none" 
	d="
M332.024017,334.480652 
	C331.733154,334.501709 331.613129,334.304749 331.737183,333.922485 
	C331.904785,333.353394 331.948303,333.166534 331.991852,332.979645 
	C332.248535,332.796417 332.491486,332.596558 333.093048,332.373688 
	C333.684052,332.648163 333.902679,332.928955 334.121307,333.209747 
	C333.519165,333.626343 332.917023,334.042938 332.024017,334.480652 
z"/>
<path fill="#47D7CC" opacity="1.000000" stroke="none" 
	d="
M335.572021,330.839081 
	C335.987885,330.844696 336.205841,330.893585 336.752441,331.006531 
	C336.565002,331.513489 336.048950,331.956451 335.259430,332.213257 
	C334.984894,331.680328 334.983856,331.333557 334.982788,330.986786 
	C334.982788,330.986786 335.374176,330.882355 335.572021,330.839081 
z"/>
<path fill="#3BDED2" opacity="1.000000" stroke="none" 
	d="
M334.697021,331.022278 
	C334.983856,331.333557 334.984894,331.680328 334.991760,332.286865 
	C334.878418,332.692963 334.759277,332.839264 334.380737,333.097656 
	C333.902679,332.928955 333.684052,332.648163 333.255493,332.202362 
	C333.500793,331.710846 333.955994,331.384338 334.697021,331.022278 
z"/>
<path fill="#35D3C5" opacity="1.000000" stroke="none" 
	d="
M250.271790,294.979095 
	C250.029266,294.548889 250.008835,294.145782 249.981323,293.439606 
	C250.432449,293.318787 250.890671,293.501038 251.358444,294.025330 
	C251.189819,294.557312 251.047623,294.771118 250.941406,295.008881 
	C250.941406,295.008881 250.493896,295.006195 250.271790,294.979095 
z"/>
<path fill="#36DDD0" opacity="1.000000" stroke="none" 
	d="
M252.788651,295.024170 
	C252.987610,295.583984 252.987640,296.005066 252.980377,296.742676 
	C252.668854,296.533173 252.364609,296.007111 252.083038,295.166931 
	C252.105728,294.852814 252.589722,294.885437 252.788651,295.024170 
z"/>
<path fill="#36DDD0" opacity="1.000000" stroke="none" 
	d="
M251.244476,295.017212 
	C251.047623,294.771118 251.189819,294.557312 251.507629,294.234070 
	C251.647247,294.100708 252.052826,294.387115 252.094086,294.631897 
	C251.939407,294.926331 251.743469,294.975952 251.244476,295.017212 
z"/>
<path fill="#09F9E7" opacity="1.000000" stroke="none" 
	d="
M366.282410,295.053314 
	C373.326233,290.621002 380.714630,286.239899 388.652863,282.128174 
	C392.974243,287.343384 387.737213,286.438354 385.530670,287.716583 
	C385.685547,288.800140 385.842773,289.900085 385.660400,290.981934 
	C384.111145,290.528839 382.901428,290.093811 382.610168,289.989075 
	C378.740692,292.910645 375.370331,295.455322 372.000000,298.000000 
	C370.209015,297.034851 368.418030,296.069702 366.282410,295.053314 
z"/>
<path fill="#05FBE5" opacity="1.000000" stroke="none" 
	d="
M371.852417,298.332886 
	C375.370331,295.455322 378.740692,292.910645 382.610168,289.989075 
	C382.901428,290.093811 384.111145,290.528839 385.721313,291.320312 
	C387.087097,293.482544 388.052460,295.288330 389.017792,297.094086 
	C388.561768,297.350708 388.105743,297.607361 387.039062,297.971191 
	C385.618225,299.046814 384.807983,300.015259 383.997742,300.983673 
	C383.242188,301.314697 382.486633,301.645691 381.051514,301.945740 
	C378.580872,302.276093 376.789825,302.637451 374.998779,302.998779 
	C370.168304,304.391937 370.639740,301.754517 371.852417,298.332886 
z"/>
<path fill="#3ADCCF" opacity="1.000000" stroke="none" 
	d="
M189.112366,274.619904 
	C188.562271,271.012360 188.090439,267.093658 188.031967,263.168793 
	C187.915878,255.375122 188.027603,247.578049 188.084900,239.295135 
	C188.701569,239.736557 189.782043,240.667084 189.778671,241.593674 
	C189.738968,252.498093 189.536865,263.401947 189.112366,274.619904 
z"/>
<path fill="#16F5E1" opacity="1.000000" stroke="none" 
	d="
M365.008362,111.322433 
	C367.492706,113.361732 369.929565,115.790306 372.366455,118.218887 
	C372.010101,118.681236 371.653717,119.143585 371.297363,119.605934 
	C366.713989,119.628326 363.266205,116.574760 359.213684,114.264046 
	C360.969879,113.248604 362.965363,112.480164 365.008362,111.322433 
z"/>
<path fill="#3ADCCF" opacity="1.000000" stroke="none" 
	d="
M188.450867,212.979797 
	C188.093460,206.719498 188.067978,200.251709 188.081482,193.296997 
	C188.696457,193.745010 189.793396,194.696960 189.763504,195.612091 
	C189.576492,201.336716 189.138000,207.053146 188.450867,212.979797 
z"/>
<path fill="#3ADCCF" opacity="1.000000" stroke="none" 
	d="
M188.449219,184.986084 
	C188.094727,181.385117 188.068100,177.578903 188.079605,173.292542 
	C191.236404,176.642181 190.274048,180.696777 188.449219,184.986084 
z"/>
<path fill="#09F9E7" opacity="1.000000" stroke="none" 
	d="
M374.999176,303.380981 
	C376.789825,302.637451 378.580872,302.276093 380.744873,301.992462 
	C379.304321,303.360046 377.490875,304.649902 375.339600,306.000671 
	C375.001068,305.295441 375.000336,304.529327 374.999176,303.380981 
z"/>
<path fill="#09F9E7" opacity="1.000000" stroke="none" 
	d="
M373.838867,306.061371 
	C372.334045,307.620483 370.463409,309.143372 368.296204,310.824402 
	C367.797668,307.092682 369.105713,304.870087 373.838867,306.061371 
z"/>
<path fill="#3ADCCF" opacity="1.000000" stroke="none" 
	d="
M188.431839,222.002060 
	C188.093140,220.038193 188.067719,217.888290 188.080826,215.275208 
	C188.327927,217.146683 188.536530,219.481354 188.431839,222.002060 
z"/>
<path fill="#09F9E7" opacity="1.000000" stroke="none" 
	d="
M360.221497,298.932495 
	C361.307190,297.935547 362.810760,296.964569 364.657288,295.944031 
	C365.057617,299.066345 362.889038,299.070068 360.221497,298.932495 
z"/>
<path fill="#09F9E7" opacity="1.000000" stroke="none" 
	d="
M361.693848,303.308655 
	C361.668976,303.877045 361.390594,304.371368 361.112213,304.865662 
	C360.756409,304.649384 360.400635,304.433136 360.044830,304.216858 
	C360.509979,303.889435 360.975128,303.562012 361.693848,303.308655 
z"/>
<path fill="#3BDED2" opacity="1.000000" stroke="none" 
	d="
M329.795227,334.664581 
	C329.239014,335.200836 328.457977,335.547760 327.358765,335.930176 
	C327.883911,335.468903 328.727173,334.972046 329.795227,334.664581 
z"/>
<path fill="#09F9E7" opacity="1.000000" stroke="none" 
	d="
M368.904419,301.556427 
	C368.376434,301.512573 368.004578,301.318176 367.632721,301.123779 
	C367.818634,300.918640 368.004578,300.713531 368.190491,300.508392 
	C368.480530,300.807556 368.770538,301.106720 368.904419,301.556427 
z"/>
<path fill="#17F2E1" opacity="1.000000" stroke="none" 
	d="
M299.145569,71.830276 
	C299.341003,71.271942 299.860565,70.689644 300.677521,70.034042 
	C300.473175,70.575928 299.971405,71.191124 299.145569,71.830276 
z"/>
<path fill="#09F9E7" opacity="1.000000" stroke="none" 
	d="
M360.849396,313.979614 
	C360.583313,314.628479 360.054749,315.183105 359.262482,315.860016 
	C359.528168,315.283356 360.057556,314.584381 360.849396,313.979614 
z"/>
<path fill="#3BDED2" opacity="1.000000" stroke="none" 
	d="
M326.679291,336.057373 
	C326.962891,336.033417 326.949066,336.462952 326.919983,336.675232 
	C326.467255,336.914429 326.043640,336.941345 325.301117,336.961731 
	C325.453369,336.663910 325.924530,336.372650 326.679291,336.057373 
z"/>
<path fill="#17F2E1" opacity="1.000000" stroke="none" 
	d="
M307.202515,67.940422 
	C307.216125,67.850945 307.515991,67.777245 307.938904,67.823441 
	C307.870941,67.947632 307.679840,67.951920 307.202515,67.940422 
z"/>
<path fill="#3BDED2" opacity="1.000000" stroke="none" 
	d="
M331.838562,333.069366 
	C331.948303,333.166534 331.904785,333.353394 331.763214,333.810120 
	C331.602844,333.867004 331.514801,333.656830 331.491089,333.439606 
	C331.481750,333.354187 331.616241,333.253082 331.838562,333.069366 
z"/>
<path fill="#17F2E1" opacity="1.000000" stroke="none" 
	d="
M313.142883,70.204437 
	C313.299866,70.138489 313.563507,70.322624 313.940735,70.750610 
	C313.779663,70.826141 313.511444,70.646164 313.142883,70.204437 
z"/>
<path fill="#17F2E1" opacity="1.000000" stroke="none" 
	d="
M310.130402,68.265915 
	C310.286804,68.198441 310.533478,68.376564 310.860931,68.809807 
	C310.711060,68.864212 310.470703,68.679741 310.130402,68.265915 
z"/>
<path fill="#07F9E7" opacity="1.000000" stroke="none" 
	d="
M327.362183,295.404846 
	C322.505432,298.309540 318.121796,301.342865 313.379272,303.632843 
	C311.442963,304.567749 308.250580,304.775452 306.449982,303.799927 
	C297.624451,299.018280 289.128571,293.633545 280.414764,288.638824 
	C269.377655,282.312439 258.239471,276.162506 247.157928,269.913391 
	C246.477600,269.529755 245.910980,268.944489 245.306107,268.464661 
	C251.169052,259.790314 259.149170,258.874451 268.339355,264.761353 
	C277.496277,270.626984 287.098206,275.798157 296.510315,281.264709 
	C297.228424,281.681763 298.122589,281.882050 298.708954,282.426483 
	C305.769104,288.981384 312.596130,287.877319 320.239929,282.906494 
	C331.764465,275.411987 343.791809,268.690948 355.600555,261.632935 
	C361.293854,258.230072 367.284882,255.210327 372.508942,251.194717 
	C374.557312,249.620163 375.782532,245.811432 375.833038,242.992447 
	C376.131317,226.335205 376.381042,209.656219 375.826752,193.011871 
	C375.454285,181.826721 382.593262,176.332321 390.730408,169.358902 
	C390.893463,172.573761 391.073273,174.482178 391.074524,176.390732 
	C391.091278,201.884445 391.035309,227.378387 391.138702,252.871689 
	C391.152344,256.233002 390.173950,258.134338 387.077545,259.912842 
	C371.842377,268.663544 356.810730,277.768860 341.717102,286.765533 
	C337.025818,289.561798 332.365417,292.409943 327.362183,295.404846 
z"/>
<path fill="#09F9E7" opacity="1.000000" stroke="none" 
	d="
M424.062134,165.730835 
	C424.567902,168.097321 425.003754,170.233643 425.006378,172.370499 
	C425.046783,205.276855 424.940063,238.183792 425.134491,271.089020 
	C425.160980,275.572479 423.582336,278.172974 419.821411,280.147491 
	C411.792664,284.362640 403.860718,288.762146 395.525452,292.774414 
	C395.921417,291.759491 396.581177,290.634216 397.458038,290.426819 
	C401.104126,289.564484 402.790588,287.237762 403.345337,284.330414 
	C398.931793,282.777344 394.905243,281.360474 390.878723,279.943542 
	C394.945343,277.432678 398.847961,274.585571 403.122345,272.500580 
	C407.888123,270.175873 409.968475,266.805573 409.957275,261.552460 
	C409.884796,227.591415 409.930084,193.630081 409.961853,159.668869 
	C409.963501,157.928772 410.195618,156.188904 410.320435,154.448929 
	C410.758759,154.211182 411.197113,153.973434 411.635468,153.735687 
	C415.687195,157.657425 419.738953,161.579178 424.062134,165.730835 
z"/>
<path fill="#04FAE5" opacity="1.000000" stroke="none" 
	d="
M390.593018,280.013458 
	C394.905243,281.360474 398.931793,282.777344 403.345337,284.330414 
	C402.790588,287.237762 401.104126,289.564484 397.458038,290.426819 
	C396.581177,290.634216 395.921417,291.759491 395.151306,292.790863 
	C395.140808,293.119049 395.109253,293.097137 394.703156,293.049622 
	C391.531372,292.334778 388.765686,291.667389 386.000000,291.000000 
	C385.842773,289.900085 385.685547,288.800140 385.530670,287.716583 
	C387.737213,286.438354 392.974243,287.343384 389.017242,282.088745 
	C389.323669,281.214417 389.815521,280.648895 390.593018,280.013458 
z"/>
<path fill="#09F9E7" opacity="1.000000" stroke="none" 
	d="
M386.060883,291.338379 
	C388.765686,291.667389 391.531372,292.334778 394.686218,293.046814 
	C393.297333,294.416443 391.519257,295.741364 389.379517,297.080200 
	C388.052460,295.288330 387.087097,293.482544 386.060883,291.338379 
z"/>
<path fill="#09F9E7" opacity="1.000000" stroke="none" 
	d="
M384.275757,300.847046 
	C384.807983,300.015259 385.618225,299.046814 386.803223,298.084961 
	C386.303284,298.964508 385.428528,299.837463 384.275757,300.847046 
z"/>
</svg>